<?xml version="1.0"?>
<svg xmlns:rdf="http://www.w3.org/1999/02/22-rdf-syntax-ns#" xmlns="http://www.w3.org/2000/svg" xmlns:cc="http://creativecommons.org/ns#" xmlns:dc="http://purl.org/dc/elements/1.1/" xmlns:svg="http://www.w3.org/2000/svg" id="svg2" fill-rule="evenodd" xml:space="preserve" viewBox="0 0 7.9879 10.2409" version="1.0">
 <defs id="defs4">
  <style id="style6" type="text/css">
    .str2 {stroke:black;stroke-width:0.00562512;stroke-linecap:round}
    .str7 {stroke:black;stroke-width:0.0058717;stroke-linecap:round}
    .str1 {stroke:black;stroke-width:0.00920054;stroke-linecap:round}
    .str4 {stroke:black;stroke-width:0.00959738;stroke-linecap:round}
    .str3 {stroke:white;stroke-width:0.0147332;stroke-linecap:round}
    .str6 {stroke:black;stroke-width:0.0153574;stroke-linecap:round}
    .str8 {stroke:white;stroke-width:0.0153574;stroke-linecap:round}
    .str0 {stroke:black;stroke-width:0.0221537;stroke-linecap:round}
    .str5 {stroke:black;stroke-width:0.0230938;stroke-linecap:round}
    .fil0 {fill:none;fill-rule:nonzero}
  </style>
 </defs>
 <g id="_30287488" stroke="#000" stroke-linecap="round" fill="none" transform="matrix(3.0749 0 0 3.0749 .10276 -11.585)">
   <path id="_30188584" d="m1.3364 4.3543c0.0422-0.0738-0.0422-0.1897 0-0.2951s0.0422-0.1792 0.0632-0.2424c0.0211-0.0632 0.0632-0.0211 0.137-0.0738s0.1664-0.0673 0.1769-0.12c-0.0392-0.055-0.106-0.165-0.106-0.2042 0-0.0393-0.0471-0.0471 0.0275-0.0511 0.0746-0.0039 0.1924-0.0118 0.2434-0.0196 0.0511-0.0079 0.0707 0 0.0786-0.0118 0.0078-0.0118 0.0471-0.0157-0.2199-0.0118s-0.3377 0.0079-0.5105-0.0039-0.25917-0.0118-0.40447-0.0118c-0.14529 0-0.27095 0.0079-0.18063 0.0354 0.09033 0.0274 0.16493 0.0235 0.21598 0.0353 0.05104 0.0118 0.10209 0.0353 0.13744 0.0785 0.03538 0.0432 0.20028 0.1257 0.39658 0.1218 0 0 0.0432 0.1335 0.0354 0.2003m0.1649-0.4045c-0.0864 0.1492-0.1257 0.1688-0.1649 0.4045" stroke-width=".023094" class="fil0 str5"/>
   <path id="_30543904" d="m1.4976 3.5405c-0.1139 0.0157-0.2592 0-0.3063-0.0196-0.0472-0.0197-0.0747-0.0314-0.1414-0.0275" stroke-width=".0095974" class="fil0 str4"/>
   <path id="_30142360" d="m0.6101 3.3284c0.00392 0.0472 0 0.1925-0.01572 0.22" stroke-width=".023094" class="fil0 str5"/>
   <path id="_30592912" d="m0.59438 3.5484c0.09818 0.0157 0.14923 0.0039 0.20026 0 0.05106-0.004 0.04713-0.0157 0.07463 0.0157 0.02748 0.0314 0.05891 0.0746 0.10994 0.0746 0.05109 0 0.16099 0.055 0.15319 0.1649" stroke-width=".0058717" class="fil0 str7"/>
   <path id="_30544048" d="m0.81036 3.6622c0.01178 0.0943 0.04319 0.1257 0.10602 0.1296 0.06283 0.004 0.17282 0.0275 0.14532 0.1061" stroke-width=".0095974" class="fil0 str4"/>
   <path id="_30403192" d="m0.96351 3.8547c0.04709 0.0157 0.09819 0.0589 0.01964 0.0746s-0.11388 0.0628-0.1453 0.106c-0.03141 0.0432-0.17278 0.1335-0.2042 0.0825" stroke-width=".0058717" class="fil0 str7"/>
   <path id="_30309672" d="m0.99493 3.458c-0.03928 0.0118-0.03928 0.0825-0.03928 0.1571m0.09425-0.1217c-0.0393 0.0118-0.0393 0.0825-0.0393 0.1571m0.6597-0.1061c0.0511-0.0157 0.0511-0.0118 0.0864-0.0078 0.0354 0.0039 0.0157 0.0118 0.0589-0.0079 0.0432-0.0196 0.0236-0.0314 0.055-0.0196s0.0275 0.0236 0.0471 0.0118c0.0197-0.0118 0.0393-0.0236 0.0511-0.0118" stroke-width=".0095974" class="fil0 str4"/>
   <path id="_30391712" d="m1.9643 3.3284l0.0045 0.1807m-0.0511 0.0118c0.0505 0.1026 0.1044 0.1026 0.0864 0.1834-0.0179 0.0808-0.0449 0.1347 0.009 0.1616m-0.0443-0.3568c0.0712 0.1055 0.1071 0.1593 0.1071 0.3568s0.0987 0.5386 0.1257 0.7899c0.0269 0.2513 0.1256 0.9155 0.1795 1.2028 0.0538 0.2872 0.0808 0.763 0.1077 0.9694 0.0269 0.2065 0.0538 0.4488 0.0538 0.5116 0 0.0629 0.018 0.0719-0.0718 0.0898-0.0897 0.018-0.1795 0.0987-0.2333 0.0808-0.0539-0.018-0.1975-0.009-0.2514-0.018-0.0538-0.0089-0.0897 0.0898-0.1166-0.1166-0.027-0.2065-0.0808-0.404-0.1077-0.5476-0.027-0.1436-0.0539-0.2872-0.0718-0.4219-0.018-0.1346-0.1347-0.4129-0.1347-0.5296 0-0.1166-0.0269-0.4129-0.0718-0.5295-0.0449-0.1167-0.0808-0.1257-0.0808-0.2424s-0.0179-0.1975-0.0089-0.2603c0.0089-0.0628 0.0538-0.1526 0.0179-0.1975 0 0-0.0538-0.0808-0.0897 0.0628-0.0359 0.1437-0.0629 0.5296-0.1257 0.754s-0.27824 1.0233-0.30516 1.14-0.09874 0.4398-0.09874 0.5116c0 0.0719-0.0359 0.2334-0.0718 0.2783s-0.0359 0.1257-0.0359 0.1436c-0.09873 0.0269-0.11669 0-0.22439-0.009-0.10771-0.0089-0.12565 0.018-0.19746 0-0.07181-0.0179-0.24234-0.0359-0.25132-0.0987m0.58285-3.881c-0.06227 0.111-0.08919 0.2457-0.09817 0.3534-0.00897 0.1077-0.02692 0.359-0.05385 0.4578-0.02693 0.0987-0.01795 0.3321-0.0359 0.4308-0.01795 0.0988-0.08976 0.5925-0.1077 0.745-0.01796 0.1526-0.04489 0.5117-0.08079 0.6374-0.0359 0.1256-0.10771 0.5565-0.12566 0.7091-0.017943 0.1526-0.04487 0.2513-0.04487 0.3321s-0.008985 0.1077-0.035912 0.2154" stroke-width=".023094" class="fil0 str5"/>
   <path id="_30159336" d="m0.85523 4.5391c-0.0718 0.2693-0.17951 0.7271-0.18848 0.8527-0.00898 0.1257-0.10771 0.6553-0.12566 0.772s-0.08079 0.4308-0.08976 0.4847m-0.01794 0.1077c-0.00898 0.0898-0.07181 0.3231-0.08976 0.368-0.01796 0.0449-0.04487 0.1616-0.04487 0.2065m-0.02693 0.1077c-0.01796 0.009 0 0 0 0z" stroke-width=".0095974" class="fil0 str4"/>
   <path id="_30206848" d="m0.38852 7.4294c0.06281-0.0449 0.20643-0.1257 0.25131-0.1077" stroke-width=".0058717" class="fil0 str7"/>
   <path id="_30132136" d="m1.672 4.0993c0.0718 0.2693 0.1167 0.4847 0.1436 0.6373s0.1526 0.754 0.1706 0.8437c0.0179 0.0898 0.0538 0.5117 0.0718 0.5745m0.0538 0.1616c0.018 0.1077 0.018 0.2154 0.0269 0.2782 0.009 0.0629 0.018 0.1885 0.027 0.2603 0.0089 0.0718 0.0359 0.2962 0.0538 0.3681" stroke-width=".0095974" class="fil0 str4"/>
   <path id="_30544096" d="m0.6488 3.6146c-0.02693 0.0897-0.07181 0.1346-0.04488 0.2333 0.02693 0.0988-0.08078 0.0359-0.04488 0.1257" stroke-width=".015357" class="fil0 str6"/>
   <path id="_30380000" d="m1.0643 3.6591c0.0678 0.0322 0.0464 0.0286 0.1321 0.05 0.0856 0.0214 0.1891-0.0321 0.2212-0.0036m0.1-0.1927c-0.0036 0.0642 0.0178 0.1678 0.0285 0.1856s0.0072 0.0285 0.0214 0.0285m-0.1534 0.5711c0.0678-0.1606 0.0678-0.2498 0.1106-0.3283 0.0428-0.0786 0.0393-0.1357 0.0821-0.1821s0.0571-0.0856 0.0678-0.0535m-0.2177 0.5711c0.0535-0.0143 0.0428-0.1678 0.0928-0.1714 0.05-0.0035 0.1178-0.0785 0.0785-0.1284m0.0464-0.1499c0.0428-0.0679 0.0857-0.1535 0.1285-0.1286 0.0428 0.025 0.0428 0.0607 0.1035 0.0536s0.0964-0.0892 0.0143-0.1713m-0.93513 0.3962c-0.03925 0.0499-0.02498 0.0428-0.00713 0.1392 0.01784 0.0963-0.02498 0.1177-0.08209 0.132-0.0571 0.0143-0.16774 0.0357-0.08923 0.0714m0.48178-0.6068c-0.0142 0.1071-0.0428 0.125-0.0142 0.1642 0.0285 0.0393-0.0036 0.1071 0.0428 0.1678" stroke-width=".0095974" class="fil0 str4"/>
   <path id="_30292808" d="m1.1214 3.959c-0.0285 0.0856-0.0607 0.1356-0.0107 0.2141s0.1106 0.207 0.0642 0.2392m-0.0785 0.0285c-0.0499-0.0178-0.16058-0.05-0.17486-0.0464m0.47826 0.0214c0.1213-0.0107 0.1677-0.0392 0.1713-0.1035 0.0036-0.0642 0.0214-0.1677 0.0643-0.1392m0.057 0.1785c-0.0142 0.0892-0.0535 0.1177-0.1213 0.0999s-0.1642 0.0036-0.1713 0.0143m-0.0678-0.0036c-0.0536 0.0643 0.0357 0.0643-0.0107 0.1142m0.389-0.6817c0.0393-0.0393 0.025-0.0857 0.0785-0.0357 0.0536 0.05 0.0892 0.05 0.1178 0.0286m0.0535 0.3533c-0.0464 0.0357-0.0856 0.0107-0.1427 0.1999m-0.6032 0.2677c-0.1142 0.0643-0.1642 0.0857-0.182 0.0607-0.0179-0.025 0.0642-0.0286 0.1035-0.0785m0.0571 0.1356c-0.0892 0-0.21415 0.0286-0.22487 0.0785m0.01784 0.0464c0.00358 0.0036 0.19273-0.0143 0.19273-0.0143m-0.05 0.0607c-0.0678 0.0643-0.0678 0.1178-0.13202 0.1499m-0.0678-0.1499c-0.01785 0.05-0.10352 0.1214-0.1499 0.1428-0.0464 0.0214-0.07139 0.05-0.07139 0.0642m0.03569 0.075c0.06067-0.0036 0.12135 0.0214 0.14634 0.0571 0.02498 0.0357 0.00713 0.0892 0.00356 0.1106-0.00356 0.0215-0.12847 0.0107-0.14276 0.0786-0.01427 0.0678-0.03569 0.1606-0.05353 0.1784m0.97791-0.671c0.1178 0.0179 0.1071 0.0321 0.1499 0.0678m0.1678 0.0714c0.0535-0.0357 0.0642-0.0785 0.0928-0.0642m-0.125 0.0321c0.0429-0.0428 0.0571-0.0821 0.0964-0.0821s0.025-0.0928-0.0607-0.0643m-0.5175-0.3212c0.1249 0.025 0.2106 0.0071 0.2177 0.0678m0.0036 0.0464c-0.0892-0.0035-0.1963-0.0142-0.1999-0.0035m0.3641-0.1714c0.0035-0.0606-0.05-0.1356 0.0035-0.1606 0.0536-0.025 0.0464-0.0321 0.0571 0.0821m-1.3955 1.9595c0.1392-0.0463 0.14634-0.1106 0.19273-0.1142 0.0464-0.0035-0.01071-0.0571-0.0571-0.0214m-0.1856 0.3641c0.02498-0.0536 0.01785-0.0678 0.06782-0.1071s0.09637-0.0393 0.10706-0.0785c0.01072-0.0393-0.00713-0.025-0.06067-0.0107-0.05353 0.0143-0.08923 0.025-0.08923 0.025m1.6918 0.2998c0.0071 0.0392 0.0821 0.0071 0.0749-0.1071-0.0071-0.1142-0.0356-0.1963 0.0464-0.207m0.1071 0.6496c-0.0571 0.0642-0.0678 0.0785-0.0678 0.1213 0 0.0429 0.0143 0.1143-0.0393 0.1178m-1.8844 0.0429c0.08923-0.0286 0.17846-0.0786 0.18203-0.0464 0.00356 0.0321 0 0.1106-0.06068 0.0892m-0.24626-0.4676c-0.04997-0.0321-0.10708-0.0392-0.08923-0.1178m-0.16061 0.4747c0.057103-0.0785 0.13562-0.157 0.17846-0.1927 0.04282-0.0357 0.01427 0.0643 0.00713 0.0928m1.3134-2.0202c0.1464 0.0321 0.1392-0.0036 0.2213 0.0821 0.0821 0.0856-0.0464 0.0856-0.0642 0.157-0.0179 0.0714-0.1321-0.0035-0.1178 0.0536m-1.1671 0.4319c0.06425-0.2071 0.07853-0.15 0.0928-0.4355s-0.07138-0.4997-0.02142-0.6282" stroke-width=".0058717" class="fil0 str7"/>
  </g>
<metadata><rdf:RDF><cc:Work><dc:format>image/svg+xml</dc:format><dc:type rdf:resource="http://purl.org/dc/dcmitype/StillImage"/><cc:license rdf:resource="http://creativecommons.org/licenses/publicdomain/"/><dc:publisher><cc:Agent rdf:about="http://openclipart.org/"><dc:title>Openclipart</dc:title></cc:Agent></dc:publisher><dc:title>Various Clothing</dc:title><dc:date>2006-11-30T07:03:56</dc:date><dc:description>cap, cap, clip art, clipart, clothing, clothing, glove, glove, image, jacket, jacket, media, pants, pants, png, public domain, scarf, scarf, svg, </dc:description><dc:source>http://openclipart.org/detail/11222/various-clothing-by-jicjac-11222</dc:source><dc:creator><cc:Agent><dc:title>JicJac</dc:title></cc:Agent></dc:creator><dc:subject><rdf:Bag><rdf:li>cap</rdf:li><rdf:li>clip art</rdf:li><rdf:li>clipart</rdf:li><rdf:li>clothing</rdf:li><rdf:li>glove</rdf:li><rdf:li>image</rdf:li><rdf:li>jacket</rdf:li><rdf:li>media</rdf:li><rdf:li>pants</rdf:li><rdf:li>png</rdf:li><rdf:li>public domain</rdf:li><rdf:li>scarf</rdf:li><rdf:li>svg</rdf:li></rdf:Bag></dc:subject></cc:Work><cc:License rdf:about="http://creativecommons.org/licenses/publicdomain/"><cc:permits rdf:resource="http://creativecommons.org/ns#Reproduction"/><cc:permits rdf:resource="http://creativecommons.org/ns#Distribution"/><cc:permits rdf:resource="http://creativecommons.org/ns#DerivativeWorks"/></cc:License></rdf:RDF></metadata></svg>
